<svg width="128" height="128" viewBox="0 0 128 128" fill="none" xmlns="http://www.w3.org/2000/svg">
<circle cx="64" cy="64" r="59" fill="#E6FCF5" stroke="url(#paint0_linear_2006_23)" stroke-width="10"/>
<path d="M59.9946 79.1798C60.4383 78.7265 60.9653 78.3669 61.5453 78.1216C62.1253 77.8763 62.7471 77.75 63.375 77.75C64.0029 77.75 64.6247 77.8763 65.2047 78.1216C65.7847 78.3669 66.3117 78.7265 66.7554 79.1798L72.9304 85.4797C74.4152 86.9941 75.2496 89.0481 75.25 91.1901V99.9616C75.25 101.033 74.833 102.06 74.0906 102.817C73.3483 103.575 72.3415 104 71.2917 104H55.4583C54.4085 104 53.4017 103.575 52.6594 102.817C51.917 102.06 51.5 101.033 51.5 99.9616V91.1901C51.5004 89.0481 52.3348 86.9941 53.8196 85.4797L59.9946 79.1798Z" fill="#FF6B6B" stroke="#FF6B6B" stroke-width="2" stroke-linecap="round" stroke-linejoin="round"/>
<path d="M91.1901 75.25C89.0481 75.2496 86.9941 74.4152 85.4797 72.9304L79.1798 66.7554C78.7265 66.3117 78.3669 65.7847 78.1216 65.2047C77.8763 64.6247 77.75 64.0029 77.75 63.375C77.75 62.7471 77.8763 62.1253 78.1216 61.5453C78.3669 60.9653 78.7265 60.4383 79.1798 59.9946L85.4797 53.8196C86.9941 52.3348 89.0481 51.5004 91.1901 51.5H99.9616C101.033 51.5 102.06 51.917 102.817 52.6594C103.575 53.4017 104 54.4085 104 55.4583V71.2917C104 72.3415 103.575 73.3483 102.817 74.0906C102.06 74.833 101.033 75.25 99.9616 75.25H91.1901Z" fill="#51CF66"/>
<path d="M42.5203 72.9304C41.0059 74.4152 38.9519 75.2496 36.8099 75.25H28.0384C26.9674 75.25 25.9402 74.833 25.1828 74.0906C24.4255 73.3483 24 72.3415 24 71.2917V55.4583C24 54.4085 24.4255 53.4017 25.1828 52.6594C25.9402 51.917 26.9674 51.5 28.0384 51.5H36.8099C38.9519 51.5004 41.0059 52.3348 42.5203 53.8196L48.8202 59.9946C49.2735 60.4383 49.6331 60.9653 49.8784 61.5453C50.1237 62.1253 50.25 62.7471 50.25 63.375C50.25 64.0029 50.1237 64.6247 49.8784 65.2047C49.6331 65.7847 49.2735 66.3117 48.8202 66.7554L42.5203 72.9304Z" fill="#339AF0" stroke="#339AF0" stroke-width="2" stroke-linecap="round" stroke-linejoin="round"/>
<path d="M51.5 28.0384C51.5 26.9674 51.917 25.9402 52.6594 25.1828C53.4017 24.4255 54.4085 24 55.4583 24H71.2917C72.3415 24 73.3483 24.4255 74.0906 25.1828C74.833 25.9402 75.25 26.9674 75.25 28.0384V36.8099C75.2496 38.9519 74.4152 41.0059 72.9304 42.5203L66.7554 48.8202C66.3117 49.2735 65.7847 49.6331 65.2047 49.8784C64.6247 50.1237 64.0029 50.25 63.375 50.25C62.7471 50.25 62.1253 50.1237 61.5453 49.8784C60.9653 49.6331 60.4383 49.2735 59.9946 48.8202L53.8196 42.5203C52.3348 41.0059 51.5004 38.9519 51.5 36.8099V28.0384Z" fill="#FCC419" stroke="#FCC419" stroke-width="2" stroke-linecap="round" stroke-linejoin="round"/>
<defs>
<linearGradient id="paint0_linear_2006_23" x1="-2.10165e-07" y1="108.127" x2="128" y2="19.8732" gradientUnits="userSpaceOnUse">
<stop stop-color="#22B8CF"/>
<stop offset="1" stop-color="#51CF66"/>
</linearGradient>
</defs>
</svg>
