<svg width="630" height="131" viewBox="0 0 630 131" fill="none" xmlns="http://www.w3.org/2000/svg">
<path d="M185.936 97.96C178.448 97.96 172.112 96.552 166.928 93.736C161.808 90.92 157.904 86.92 155.216 81.736C152.528 76.552 151.184 70.408 151.184 63.304C151.184 57.928 151.952 53.096 153.488 48.808C155.088 44.52 157.36 40.872 160.304 37.864C163.312 34.792 166.96 32.456 171.248 30.856C175.536 29.192 180.4 28.36 185.84 28.36C189.424 28.36 193.008 28.808 196.592 29.704C200.24 30.536 203.664 31.976 206.864 34.024C207.952 34.728 208.656 35.592 208.976 36.616C209.36 37.64 209.424 38.696 209.168 39.784C208.912 40.808 208.432 41.704 207.728 42.472C207.024 43.24 206.128 43.72 205.04 43.912C204.016 44.104 202.864 43.848 201.584 43.144C199.152 41.736 196.688 40.712 194.192 40.072C191.696 39.432 188.912 39.112 185.84 39.112C181.104 39.112 177.104 40.072 173.84 41.992C170.576 43.848 168.112 46.568 166.448 50.152C164.848 53.736 164.048 58.12 164.048 63.304C164.048 71.176 165.936 77.16 169.712 81.256C173.488 85.352 179.088 87.4 186.512 87.4C189.072 87.4 191.664 87.144 194.288 86.632C196.912 86.12 199.472 85.416 201.968 84.52L199.568 89.992V69.544H189.008C187.408 69.544 186.16 69.128 185.264 68.296C184.432 67.464 184.016 66.344 184.016 64.936C184.016 63.464 184.432 62.344 185.264 61.576C186.16 60.808 187.408 60.424 189.008 60.424H204.848C206.448 60.424 207.664 60.872 208.496 61.768C209.392 62.6 209.84 63.816 209.84 65.416V88.744C209.84 90.152 209.552 91.336 208.976 92.296C208.464 93.256 207.6 93.96 206.384 94.408C203.568 95.432 200.336 96.296 196.688 97C193.04 97.64 189.456 97.96 185.936 97.96ZM238.384 97.96C234.992 97.96 231.952 97.32 229.264 96.04C226.64 94.696 224.56 92.904 223.023 90.664C221.552 88.424 220.816 85.896 220.816 83.08C220.816 79.624 221.712 76.904 223.504 74.92C225.296 72.872 228.208 71.4 232.24 70.504C236.272 69.608 241.68 69.16 248.464 69.16H253.264V76.072H248.56C244.592 76.072 241.424 76.264 239.056 76.648C236.688 77.032 234.992 77.704 233.968 78.664C233.008 79.56 232.528 80.84 232.528 82.504C232.528 84.616 233.264 86.344 234.736 87.688C236.208 89.032 238.256 89.704 240.88 89.704C242.992 89.704 244.848 89.224 246.448 88.264C248.112 87.24 249.424 85.864 250.384 84.136C251.344 82.408 251.824 80.424 251.824 78.184V67.144C251.824 63.944 251.12 61.64 249.712 60.232C248.304 58.824 245.936 58.12 242.608 58.12C240.752 58.12 238.736 58.344 236.56 58.792C234.448 59.24 232.208 60.008 229.84 61.096C228.624 61.672 227.536 61.832 226.576 61.576C225.68 61.32 224.976 60.808 224.464 60.04C223.952 59.208 223.696 58.312 223.696 57.352C223.696 56.392 223.952 55.464 224.464 54.568C224.976 53.608 225.84 52.904 227.056 52.456C230 51.24 232.816 50.376 235.504 49.864C238.256 49.352 240.752 49.096 242.992 49.096C247.6 49.096 251.376 49.8 254.32 51.208C257.328 52.616 259.568 54.76 261.04 57.64C262.512 60.456 263.248 64.104 263.248 68.584V91.624C263.248 93.608 262.768 95.144 261.808 96.232C260.848 97.256 259.472 97.768 257.68 97.768C255.888 97.768 254.48 97.256 253.456 96.232C252.496 95.144 252.016 93.608 252.016 91.624V87.016H252.784C252.336 89.256 251.44 91.208 250.096 92.872C248.816 94.472 247.184 95.72 245.2 96.616C243.216 97.512 240.944 97.96 238.384 97.96ZM281.572 97.768C279.652 97.768 278.18 97.256 277.156 96.232C276.132 95.144 275.62 93.608 275.62 91.624V55.336C275.62 53.352 276.132 51.848 277.156 50.824C278.18 49.8 279.62 49.288 281.476 49.288C283.332 49.288 284.772 49.8 285.796 50.824C286.82 51.848 287.332 53.352 287.332 55.336V62.344L286.276 59.464C287.556 56.264 289.54 53.736 292.228 51.88C294.916 50.024 298.116 49.096 301.828 49.096C305.604 49.096 308.708 49.992 311.14 51.784C313.572 53.576 315.268 56.328 316.228 60.04H314.884C316.164 56.648 318.276 53.992 321.22 52.072C324.164 50.088 327.556 49.096 331.396 49.096C334.98 49.096 337.924 49.8 340.228 51.208C342.596 52.616 344.356 54.76 345.508 57.64C346.66 60.456 347.236 64.04 347.236 68.392V91.624C347.236 93.608 346.692 95.144 345.604 96.232C344.58 97.256 343.108 97.768 341.188 97.768C339.268 97.768 337.796 97.256 336.772 96.232C335.748 95.144 335.236 93.608 335.236 91.624V68.872C335.236 65.288 334.628 62.664 333.412 61C332.26 59.336 330.276 58.504 327.46 58.504C324.324 58.504 321.86 59.624 320.068 61.864C318.276 64.04 317.38 67.08 317.38 70.984V91.624C317.38 93.608 316.868 95.144 315.844 96.232C314.82 97.256 313.348 97.768 311.428 97.768C309.508 97.768 308.004 97.256 306.916 96.232C305.892 95.144 305.38 93.608 305.38 91.624V68.872C305.38 65.288 304.772 62.664 303.556 61C302.404 59.336 300.452 58.504 297.7 58.504C294.564 58.504 292.1 59.624 290.308 61.864C288.516 64.04 287.62 67.08 287.62 70.984V91.624C287.62 95.72 285.604 97.768 281.572 97.768ZM382.751 97.96C377.439 97.96 372.863 96.968 369.023 94.984C365.183 93 362.207 90.184 360.095 86.536C358.047 82.888 357.023 78.568 357.023 73.576C357.023 68.712 358.015 64.456 359.999 60.808C362.047 57.16 364.831 54.312 368.351 52.264C371.935 50.152 375.999 49.096 380.543 49.096C383.871 49.096 386.847 49.64 389.471 50.728C392.159 51.816 394.431 53.384 396.287 55.432C398.207 57.48 399.647 59.976 400.607 62.92C401.631 65.8 402.143 69.064 402.143 72.712C402.143 73.864 401.727 74.76 400.895 75.4C400.127 75.976 399.007 76.264 397.535 76.264H366.719V69.352H393.695L392.159 70.792C392.159 67.848 391.711 65.384 390.815 63.4C389.983 61.416 388.735 59.912 387.071 58.888C385.471 57.8 383.455 57.256 381.023 57.256C378.335 57.256 376.031 57.896 374.111 59.176C372.255 60.392 370.815 62.152 369.791 64.456C368.831 66.696 368.351 69.384 368.351 72.52V73.192C368.351 78.44 369.567 82.376 371.999 85C374.495 87.56 378.143 88.84 382.943 88.84C384.607 88.84 386.463 88.648 388.511 88.264C390.623 87.816 392.607 87.08 394.463 86.056C395.807 85.288 396.991 84.968 398.015 85.096C399.039 85.16 399.839 85.512 400.415 86.152C401.055 86.792 401.439 87.592 401.567 88.552C401.695 89.448 401.503 90.376 400.991 91.336C400.543 92.296 399.743 93.128 398.591 93.832C396.351 95.24 393.759 96.296 390.815 97C387.935 97.64 385.247 97.96 382.751 97.96ZM417.598 97.768C415.678 97.768 414.206 97.256 413.182 96.232C412.158 95.144 411.646 93.608 411.646 91.624V34.6C411.646 32.616 412.158 31.112 413.182 30.088C414.206 29.064 415.678 28.552 417.598 28.552C419.518 28.552 420.99 29.064 422.014 30.088C423.102 31.112 423.646 32.616 423.646 34.6V59.464H422.302C423.71 56.072 425.886 53.512 428.83 51.784C431.838 49.992 435.23 49.096 439.006 49.096C442.782 49.096 445.886 49.8 448.318 51.208C450.75 52.616 452.574 54.76 453.79 57.64C455.006 60.456 455.614 64.04 455.614 68.392V91.624C455.614 93.608 455.102 95.144 454.078 96.232C453.054 97.256 451.582 97.768 449.662 97.768C447.742 97.768 446.238 97.256 445.15 96.232C444.126 95.144 443.614 93.608 443.614 91.624V68.968C443.614 65.32 442.91 62.664 441.502 61C440.158 59.336 438.046 58.504 435.166 58.504C431.646 58.504 428.83 59.624 426.718 61.864C424.67 64.04 423.646 66.952 423.646 70.6V91.624C423.646 95.72 421.63 97.768 417.598 97.768ZM489.211 97.96C484.347 97.96 480.123 96.968 476.539 94.984C472.955 93 470.171 90.184 468.187 86.536C466.203 82.824 465.211 78.472 465.211 73.48C465.211 69.704 465.755 66.344 466.843 63.4C467.995 60.392 469.627 57.832 471.739 55.72C473.851 53.544 476.379 51.912 479.323 50.824C482.267 49.672 485.563 49.096 489.211 49.096C494.075 49.096 498.299 50.088 501.883 52.072C505.467 54.056 508.251 56.872 510.235 60.52C512.219 64.168 513.211 68.488 513.211 73.48C513.211 77.256 512.635 80.648 511.483 83.656C510.395 86.664 508.795 89.256 506.683 91.432C504.571 93.544 502.043 95.176 499.099 96.328C496.155 97.416 492.859 97.96 489.211 97.96ZM489.211 88.84C491.579 88.84 493.659 88.264 495.451 87.112C497.243 85.96 498.619 84.264 499.579 82.024C500.603 79.72 501.115 76.872 501.115 73.48C501.115 68.36 500.027 64.552 497.851 62.056C495.675 59.496 492.795 58.216 489.211 58.216C486.843 58.216 484.763 58.792 482.971 59.944C481.179 61.032 479.771 62.728 478.747 65.032C477.787 67.272 477.307 70.088 477.307 73.48C477.307 78.536 478.395 82.376 480.571 85C482.747 87.56 485.627 88.84 489.211 88.84ZM544.523 97.96C539.659 97.96 535.435 96.968 531.851 94.984C528.267 93 525.483 90.184 523.499 86.536C521.515 82.824 520.523 78.472 520.523 73.48C520.523 69.704 521.067 66.344 522.155 63.4C523.307 60.392 524.939 57.832 527.051 55.72C529.163 53.544 531.691 51.912 534.635 50.824C537.579 49.672 540.875 49.096 544.523 49.096C549.387 49.096 553.611 50.088 557.195 52.072C560.779 54.056 563.563 56.872 565.547 60.52C567.531 64.168 568.523 68.488 568.523 73.48C568.523 77.256 567.947 80.648 566.795 83.656C565.707 86.664 564.107 89.256 561.995 91.432C559.883 93.544 557.355 95.176 554.411 96.328C551.467 97.416 548.171 97.96 544.523 97.96ZM544.523 88.84C546.891 88.84 548.971 88.264 550.763 87.112C552.555 85.96 553.931 84.264 554.891 82.024C555.915 79.72 556.427 76.872 556.427 73.48C556.427 68.36 555.339 64.552 553.163 62.056C550.987 59.496 548.107 58.216 544.523 58.216C542.155 58.216 540.075 58.792 538.283 59.944C536.491 61.032 535.083 62.728 534.059 65.032C533.099 67.272 532.619 70.088 532.619 73.48C532.619 78.536 533.707 82.376 535.883 85C538.059 87.56 540.939 88.84 544.523 88.84ZM584.38 115.048C582.46 115.048 580.988 114.536 579.964 113.512C578.94 112.488 578.428 110.984 578.428 109V55.336C578.428 53.352 578.94 51.848 579.964 50.824C580.988 49.8 582.428 49.288 584.284 49.288C586.204 49.288 587.676 49.8 588.7 50.824C589.724 51.848 590.236 53.352 590.236 55.336V62.824L589.18 59.944C590.14 56.68 592.092 54.056 595.036 52.072C598.044 50.088 601.532 49.096 605.5 49.096C609.596 49.096 613.18 50.088 616.252 52.072C619.388 54.056 621.82 56.872 623.548 60.52C625.276 64.104 626.14 68.424 626.14 73.48C626.14 78.472 625.276 82.824 623.548 86.536C621.82 90.184 619.42 93 616.348 94.984C613.276 96.968 609.66 97.96 605.5 97.96C601.596 97.96 598.172 97 595.228 95.08C592.284 93.096 590.3 90.536 589.276 87.4H590.428V109C590.428 110.984 589.884 112.488 588.796 113.512C587.772 114.536 586.3 115.048 584.38 115.048ZM602.14 88.84C604.508 88.84 606.588 88.264 608.38 87.112C610.172 85.96 611.548 84.264 612.508 82.024C613.532 79.72 614.044 76.872 614.044 73.48C614.044 68.36 612.956 64.552 610.78 62.056C608.604 59.496 605.724 58.216 602.14 58.216C599.772 58.216 597.692 58.792 595.9 59.944C594.108 61.032 592.7 62.728 591.676 65.032C590.716 67.272 590.236 70.088 590.236 73.48C590.236 78.536 591.324 82.376 593.5 85C595.676 87.56 598.556 88.84 602.14 88.84Z" fill="white"/>
<circle cx="64" cy="67" r="59" fill="#E6FCF5" stroke="url(#paint0_linear_2012_27)" stroke-width="10"/>
<path d="M59.9946 82.1798C60.4383 81.7265 60.9653 81.3669 61.5453 81.1216C62.1253 80.8763 62.7471 80.75 63.375 80.75C64.0029 80.75 64.6247 80.8763 65.2047 81.1216C65.7847 81.3669 66.3117 81.7265 66.7554 82.1798L72.9304 88.4797C74.4152 89.9941 75.2496 92.0481 75.25 94.1901V102.962C75.25 104.033 74.833 105.06 74.0906 105.817C73.3483 106.575 72.3415 107 71.2917 107H55.4583C54.4085 107 53.4017 106.575 52.6594 105.817C51.917 105.06 51.5 104.033 51.5 102.962V94.1901C51.5004 92.0481 52.3348 89.9941 53.8196 88.4797L59.9946 82.1798Z" fill="#FF6B6B" stroke="#FF6B6B" stroke-width="2" stroke-linecap="round" stroke-linejoin="round"/>
<path d="M91.1901 78.25C89.0481 78.2496 86.9941 77.4152 85.4797 75.9304L79.1798 69.7554C78.7265 69.3117 78.3669 68.7847 78.1216 68.2047C77.8763 67.6247 77.75 67.0029 77.75 66.375C77.75 65.7471 77.8763 65.1253 78.1216 64.5453C78.3669 63.9653 78.7265 63.4383 79.1798 62.9946L85.4797 56.8196C86.9941 55.3348 89.0481 54.5004 91.1901 54.5H99.9616C101.033 54.5 102.06 54.917 102.817 55.6594C103.575 56.4017 104 57.4085 104 58.4583V74.2917C104 75.3415 103.575 76.3483 102.817 77.0906C102.06 77.833 101.033 78.25 99.9616 78.25H91.1901Z" fill="#51CF66"/>
<path d="M42.5203 75.9304C41.0059 77.4152 38.9519 78.2496 36.8099 78.25H28.0384C26.9674 78.25 25.9402 77.833 25.1828 77.0906C24.4255 76.3483 24 75.3415 24 74.2917V58.4583C24 57.4085 24.4255 56.4017 25.1828 55.6594C25.9402 54.917 26.9674 54.5 28.0384 54.5H36.8099C38.9519 54.5004 41.0059 55.3348 42.5203 56.8196L48.8202 62.9946C49.2735 63.4383 49.6331 63.9653 49.8784 64.5453C50.1237 65.1253 50.25 65.7471 50.25 66.375C50.25 67.0029 50.1237 67.6247 49.8784 68.2047C49.6331 68.7847 49.2735 69.3117 48.8202 69.7554L42.5203 75.9304Z" fill="#339AF0" stroke="#339AF0" stroke-width="2" stroke-linecap="round" stroke-linejoin="round"/>
<path d="M51.5 31.0384C51.5 29.9674 51.917 28.9402 52.6594 28.1828C53.4017 27.4255 54.4085 27 55.4583 27H71.2917C72.3415 27 73.3483 27.4255 74.0906 28.1828C74.833 28.9402 75.25 29.9674 75.25 31.0384V39.8099C75.2496 41.9519 74.4152 44.0059 72.9304 45.5203L66.7554 51.8202C66.3117 52.2735 65.7847 52.6331 65.2047 52.8784C64.6247 53.1237 64.0029 53.25 63.375 53.25C62.7471 53.25 62.1253 53.1237 61.5453 52.8784C60.9653 52.6331 60.4383 52.2735 59.9946 51.8202L53.8196 45.5203C52.3348 44.0059 51.5004 41.9519 51.5 39.8099V31.0384Z" fill="#FCC419" stroke="#FCC419" stroke-width="2" stroke-linecap="round" stroke-linejoin="round"/>
<defs>
<linearGradient id="paint0_linear_2012_27" x1="-2.10165e-07" y1="111.127" x2="128" y2="22.8732" gradientUnits="userSpaceOnUse">
<stop stop-color="#22B8CF"/>
<stop offset="1" stop-color="#51CF66"/>
</linearGradient>
</defs>
</svg>
